<?xml version="1.0" encoding="utf-8"?>
<!-- Generator: Adobe Illustrator 24.1.1, SVG Export Plug-In . SVG Version: 6.00 Build 0)  -->
<svg version="1.1" id="Camada_1" xmlns="http://www.w3.org/2000/svg" xmlns:xlink="http://www.w3.org/1999/xlink" x="0px" y="0px"
	 viewBox="0 0 1920 1080" style="enable-background:new 0 0 1920 1080;" xml:space="preserve">
<style type="text/css">
	.st0{fill:#727070;}
	.st1{fill:#EF7764;}
</style>
<g>
	<path class="st0" d="M530.94,608.49c-10.51,6.86-24.46,10.29-41.83,10.29c-6.13,0-11.87-0.51-17.25-1.49
		c-12.84,1.08-24,9.99-27.24,17.56c-3.11,7.24-3.64,15.01-1.99,22.48c3.05,13.78-5.72,25.08-15.95,28.17
		c-11.56,3.49-25.42-5.21-27.91-17.04c-2.41-11.44,5.21-22.75,16.11-25.98c20.3-6.03,28.38-26.62,22.02-43.39
		c-0.15-0.15-0.3-0.3-0.45-0.45c-4.95-5.33-8.91-11.68-11.9-19.01c-2.26-4-4.21-8.21-6.03-12.54c-9.1-21.72-33.25-26.44-50.71-13.69
		c-4.46,3.26-9.26,6.46-14.4,8.32c-10.31,3.73-21.42-4.51-24.72-13.05c-5.96-15.45,4.13-29.14,18.76-31.39
		c6.04-0.93,11.77,2.04,16.44,6.13c10,8.74,21.18,13.07,34.34,8.72c10.16-3.36,17.28-10.31,20.79-20.48
		c1.02-2.96,2.35-5.73,3.84-8.41c3.08-9.21,7.51-17.02,13.34-23.41c0.46-0.5,0.93-0.97,1.4-1.45c3.26-10.97,0.96-24.15-7.47-31.38
		c-4.65-3.99-10.44-6.81-16.02-9.52c-7.77-3.77-13.5-8.63-15.49-17.67c-2.36-10.74,6.63-23.39,17.92-25.65
		c14.02-2.81,25.62,8.3,26.2,19.98c0.31,6.2-0.64,12.46-0.66,18.69c-0.04,13.1,7.48,21.57,17.81,26.89c2.29,1.18,4.57,1.89,6.85,2.3
		c6.5-1.62,13.57-2.44,21.25-2.44c16.79,0,30.59,3.29,41.39,9.86c3.07,2.04,4.09,4.31,3.07,6.79l-5.91,13.36
		c-1.31,3.36-3.79,4.23-7.45,2.63c-7.88-3.65-16.64-5.48-26.28-5.48c-14.89,0-25.95,4.31-33.18,12.92
		c-7.23,8.61-10.84,21.83-10.84,39.64c0,17.81,3.69,30.99,11.06,39.53c7.37,8.54,18.72,12.81,34.05,12.81
		c9.93,0,18.83-2.12,26.72-6.35c3.36-1.31,5.84-0.29,7.45,3.07l6.13,13.58C535.25,604.41,534.15,606.6,530.94,608.49z
		 M601.03,459.57c-21.75,0-38.58,6.72-50.48,20.15c-11.9,13.43-17.85,33.29-17.85,59.57c0,26.14,5.91,45.92,17.74,59.35
		c11.83,13.43,28.62,20.15,50.37,20.15c21.9,0,38.8-6.68,50.7-20.04c11.9-13.36,17.85-33.18,17.85-59.46
		c0-26.28-5.95-46.14-17.85-59.57C639.61,466.29,622.78,459.57,601.03,459.57z M601.03,592.07c-24.82,0-37.23-17.59-37.23-52.78
		c0-35.33,12.41-53,37.23-53c24.68,0,37.01,17.67,37.01,53C638.04,574.48,625.7,592.07,601.03,592.07z M747.55,616.38
		c3.5,0,5.84-1.75,7.01-5.26l48.4-142.79c0.58-1.9,0.51-3.39-0.22-4.49c-0.73-1.1-1.97-1.64-3.72-1.64h-21.46
		c-3.36,0-5.48,1.61-6.35,4.82l-26.28,81.69l-9.42,36.14h-0.44l-9.64-36.14l-26.28-81.69c-0.88-3.21-2.99-4.82-6.35-4.82h-21.24
		c-1.9,0-3.21,0.55-3.94,1.64c-0.73,1.1-0.8,2.59-0.22,4.49l48.62,142.79c1.17,3.5,3.43,5.26,6.79,5.26H747.55z M815.66,610.9
		c0,3.65,1.75,5.48,5.26,5.48h19.93c3.65,0,5.48-1.82,5.48-5.48V467.45c0-3.5-1.83-5.26-5.48-5.26h-19.93
		c-3.5,0-5.26,1.75-5.26,5.26V610.9z M916.63,616.38c25.55,0,44.64-6.06,57.27-18.18c12.63-12.12,18.94-32.27,18.94-60.45
		c0-26.86-6.35-46.17-19.06-57.93c-12.7-11.75-31.83-17.63-57.38-17.63h-42.27c-3.5,0-5.26,1.75-5.26,5.26V610.9
		c0,3.65,1.82,5.48,5.48,5.48H916.63z M915.31,489.35c15.91,0,27.63,3.5,35.15,10.51s11.28,19.64,11.28,37.89
		c0,19.57-3.72,33.03-11.17,40.41c-7.45,7.37-19.13,11.06-35.04,11.06h-15.99v-99.87H915.31z"/>
	<path class="st1" d="M1037.63,583.53c0-3.94,1.68-7.96,5.04-12.05l56.72-68.11h-51.69c-5.26,0-7.88-2.63-7.88-7.88v-26.28
		c0-5.26,2.63-7.88,7.88-7.88h99.87c5.26,0,7.88,2.63,7.88,7.88v24.97c0,3.94-1.68,7.96-5.04,12.05l-56.5,68.11h55.41
		c5.26,0,7.88,2.63,7.88,7.88v26.28c0,5.26-2.63,7.88-7.88,7.88h-103.81c-5.26,0-7.88-2.63-7.88-7.88V583.53z M1225.11,556.59v20.37
		h53.88c5.26,0,7.88,2.63,7.88,7.88v23.65c0,5.26-2.63,7.88-7.88,7.88h-92.86c-5.26,0-7.88-2.63-7.88-7.88V469.21
		c0-5.26,2.63-7.88,7.88-7.88h91.55c5.26,0,7.88,2.63,7.88,7.88v23.65c0,5.26-2.63,7.88-7.88,7.88h-52.56v18.18h49.28
		c5.11,0,7.67,2.63,7.67,7.88v22.12c0,5.11-2.56,7.67-7.67,7.67H1225.11z M1369.43,461.32c22.05,0,38.62,4.27,49.71,12.81
		c11.1,8.54,16.64,22.81,16.64,42.82c0,22.05-9.34,37.45-28.03,46.21l26.28,43.36c1.61,2.63,1.97,4.93,1.1,6.9s-2.7,2.96-5.48,2.96
		h-31.97c-4.82,0-8.47-2.12-10.95-6.35l-22.56-39.64h-11.17v38.11c0,5.26-2.63,7.88-7.88,7.88h-31.54c-5.26,0-7.88-2.63-7.88-7.88
		V469.21c0-5.26,2.63-7.88,7.88-7.88H1369.43z M1368.78,533.16c6.86,0,11.79-1.31,14.78-3.94c2.99-2.63,4.49-6.72,4.49-12.26
		c0-6.28-1.46-10.55-4.38-12.81c-2.92-2.26-7.88-3.39-14.89-3.39h-15.77v32.41H1368.78z M1593.05,538.85
		c0-27.3-6.28-47.49-18.83-60.56c-12.56-13.07-30.08-19.6-52.56-19.6c-22.49,0-40.01,6.53-52.56,19.6
		c-12.56,13.07-18.83,33.25-18.83,60.56c0,27.3,6.28,47.49,18.83,60.55c12.56,13.07,30.08,19.6,52.56,19.6c0.08,0,0.17,0,0.25,0
		c0.06,0,0.12,0,0.19,0c22.48,0,40-6.53,52.56-19.6c1.47-1.53,2.66-3.13,3.62-4.78C1588.11,581.61,1593.05,563.03,1593.05,538.85z
		 M1540.04,567.05c-0.28,0.56-0.56,1.1-0.86,1.61c-0.34,0.57-0.7,1.11-1.07,1.62c-0.13,0.19-0.26,0.38-0.4,0.56
		c-0.37,0.48-0.76,0.92-1.16,1.36c-0.2,0.22-0.4,0.46-0.61,0.67c-0.28,0.28-0.59,0.53-0.88,0.79c-0.37,0.33-0.74,0.66-1.14,0.96
		c-0.1,0.08-0.21,0.14-0.31,0.21c-3.22,2.26-7.15,3.41-11.8,3.43c-0.25,0-0.49-0.01-0.73-0.02c-0.4-0.01-0.79-0.04-1.18-0.06
		c-3.85-0.29-7.14-1.35-9.85-3.2l34.18-46.52c0.27,3.19,0.42,6.63,0.42,10.38c0,12.21-1.44,21.42-4.32,27.64
		C1540.23,566.69,1540.13,566.87,1540.04,567.05z M1533.74,502.95l-34.21,46.63c-0.29-4.67-0.44-8.25-0.44-10.73
		c0-26.16,7.6-39.29,22.79-39.41C1526.56,499.48,1530.52,500.65,1533.74,502.95z"/>
</g>
</svg>
