<?xml version="1.0" encoding="utf-8"?>
<!-- Generator: Adobe Illustrator 24.1.1, SVG Export Plug-In . SVG Version: 6.00 Build 0)  -->
<svg version="1.1" xmlns="http://www.w3.org/2000/svg" xmlns:xlink="http://www.w3.org/1999/xlink" x="0px" y="0px"
	 viewBox="0 0 1920 1080" style="enable-background:new 0 0 1920 1080;" xml:space="preserve">
<style type="text/css">
	.st0{display:none;}
	.st1{display:inline;fill:#010202;}
	.st2{fill:#706F6F;}
	.st3{fill:#EF7764;}
</style>
<g id="Camada_2" class="st0">
	<rect class="st1" width="1920" height="1080"/>
</g>
<g id="Camada_1">
	<g>
		<path class="st2" d="M1007.05,723.44c-28.15,18.38-65.5,27.57-112.03,27.57c-16.41,0-31.79-1.37-46.21-4
			c-34.39,2.89-64.27,26.77-72.97,47.03c-8.33,19.4-9.76,40.2-5.33,60.22c8.16,36.91-15.32,67.16-42.72,75.44
			c-30.97,9.35-68.08-13.94-74.74-45.64c-6.45-30.65,13.97-60.92,43.13-69.58c54.36-16.15,76-71.3,58.97-116.2
			c-0.39-0.41-0.81-0.8-1.2-1.22c-13.27-14.27-23.85-31.27-31.86-50.9c-6.05-10.72-11.28-21.99-16.14-33.59
			c-24.36-58.17-89.05-70.81-135.81-36.67c-11.95,8.73-24.8,17.29-38.56,22.27c-27.62,9.99-57.36-12.08-66.19-34.94
			c-15.97-41.37,11.07-78.05,50.25-84.06c16.17-2.48,31.52,5.48,44.03,16.41c26.8,23.41,56.73,35.02,91.98,23.36
			c27.21-9,46.28-27.61,55.68-54.86c2.74-7.93,6.3-15.36,10.28-22.53c8.24-24.66,20.12-45.59,35.74-62.69
			c1.22-1.34,2.49-2.59,3.75-3.88c8.73-29.38,2.58-64.68-20.01-84.05c-12.46-10.68-27.95-18.25-42.91-25.5
			c-20.8-10.09-36.16-23.13-41.48-47.32c-6.32-28.76,17.76-62.65,48-68.7c37.56-7.52,68.62,22.22,70.17,53.5
			c0.82,16.62-1.72,33.37-1.77,50.07c-0.11,35.09,20.04,57.76,47.69,72c6.12,3.15,12.23,5.05,18.36,6.16
			c17.4-4.33,36.35-6.55,56.91-6.55c44.97,0,81.92,8.8,110.86,26.39c8.21,5.48,10.95,11.54,8.21,18.18l-15.84,35.78
			c-3.52,9-10.16,11.34-19.94,7.04c-21.12-9.77-44.58-14.66-70.39-14.66c-39.88,0-69.5,11.54-88.86,34.61
			c-19.36,23.07-29.04,58.46-29.04,106.16c0,47.71,9.87,83,29.62,105.87c19.75,22.88,50.15,34.31,91.21,34.31
			c26.59,0,50.44-5.67,71.56-17.01c9-3.52,15.64-0.78,19.94,8.21l16.42,36.37C1018.58,712.49,1015.65,718.36,1007.05,723.44z"/>
		<path class="st3" d="M1399.26,536.92c0-73.13-16.82-127.18-50.44-162.18c-33.63-35-80.55-52.49-140.77-52.49
			c-60.22,0-107.14,17.5-140.77,52.49c-33.63,35-50.44,89.06-50.44,162.18c0,73.12,16.81,127.18,50.44,162.18
			c33.63,35,80.55,52.5,140.77,52.5c0.23,0,0.45-0.01,0.67-0.01c0.17,0,0.33,0.01,0.5,0.01c60.22,0,107.14-17.5,140.77-52.5
			c3.95-4.11,7.12-8.37,9.69-12.8C1386.05,651.44,1399.26,601.67,1399.26,536.92z M1257.29,612.46c-0.74,1.5-1.51,2.94-2.31,4.3
			c-0.91,1.53-1.88,2.96-2.88,4.35c-0.36,0.5-0.69,1.03-1.06,1.51c-0.99,1.29-2.04,2.47-3.1,3.63c-0.55,0.59-1.06,1.23-1.63,1.79
			c-0.75,0.76-1.57,1.42-2.36,2.12c-1,0.87-1.99,1.78-3.05,2.56c-0.27,0.2-0.56,0.36-0.83,0.56c-8.62,6.05-19.14,9.12-31.59,9.19
			c-0.66-0.01-1.31-0.04-1.96-0.06c-1.08-0.02-2.12-0.09-3.16-0.16c-10.32-0.77-19.13-3.61-26.39-8.56l91.55-124.58
			c0.73,8.53,1.12,17.76,1.12,27.8c0,32.69-3.87,57.36-11.57,74.03C1257.81,611.47,1257.55,611.96,1257.29,612.46z M1240.43,440.78
			l-91.62,124.88c-0.78-12.51-1.17-22.1-1.17-28.74c0-70.05,20.35-105.22,61.02-105.55C1221.2,431.47,1231.79,434.6,1240.43,440.78z
			"/>
	</g>
</g>
</svg>
